<svg xmlns="http://www.w3.org/2000/svg" width="16" height="14" viewBox="0 0 16 14"><path fill="#F9F5E1" fill-rule="evenodd" d="M15.925 12.868L13.773 10.8a.375.375 0 0 0-.512.028l-.536.518a.338.338 0 0 0-.119.241.334.334 0 0 0 .1.25l2.152 2.073a.365.365 0 0 0 .5-.028l.542-.522a.342.342 0 0 0 .024-.492h.001zM3.577 8.443L12.165 0H14.4v2.178l-8.689 8.345 1.369 1.335a.418.418 0 0 1-.032.6l-.648.632a.435.435 0 0 1-.608.033L.912 8.365a.419.419 0 0 1 .032-.6l.648-.631A.437.437 0 0 1 2.2 7.1l1.377 1.343zM10.98 7.02l1.436 1.41L13.8 7.1a.457.457 0 0 1 .624.033l.656.631a.412.412 0 0 1 .032.6l-4.952 4.758a.456.456 0 0 1-.624-.033l-.648-.631a.412.412 0 0 1-.04-.6l1.413-1.358-1.447-1.39.896-.865 1.114 1.09a.112.112 0 0 0 .16-.009l.176-.171a.116.116 0 0 0 .008-.162l.008-.004-1.111-1.086.914-.882zM7.264 3.374l-.923.89L4.35 2.315a.113.113 0 0 0-.16.009l-.176.175A.116.116 0 0 0 4 2.658l1.988 1.945-.931.898L1.6 2.181V0h2.229l3.435 3.374zM.093 12.868L2.245 10.8a.375.375 0 0 1 .512.028l.536.518a.342.342 0 0 1 .032.491l-2.152 2.069a.375.375 0 0 1-.512-.028l-.544-.518a.342.342 0 0 1-.024-.492zM4.848 8.99l-.003.004a.11.11 0 0 0 .008.163l.168.17a.122.122 0 0 0 .168.009l6.76-6.654a.109.109 0 0 0-.008-.162l-.173-.172a.123.123 0 0 0-.168-.008L4.848 8.99z"/></svg>