<svg xmlns="http://www.w3.org/2000/svg" width="17.781" height="16" viewBox="0 0 17.781 16"><path data-name="Experience Per Battle" d="M17.75 5.411a5.519 5.519 0 0 1-4.025 2.232 10.689 10.689 0 0 1-1.906-.372 14.121 14.121 0 0 0-2.754-.372 4.774 4.774 0 0 0-2.754.929l-.789.2-.1-.267-1.647-4.4c-.008-.02-.633-1.466-.636-1.487a.6.6 0 0 1 .212-.372A6.694 6.694 0 0 1 7.376.014a9.241 9.241 0 0 1 3.389.744 5.479 5.479 0 0 0 1.907.372A15.174 15.174 0 0 0 15.849.014a.812.812 0 0 1 .424 0 .351.351 0 0 1 .212.186l1.271 4.835a.934.934 0 0 1-.006.376zM5.145 16L-.003 2.272l1.4-.614L6.505 15.2z" fill="#f9f5e1" fill-rule="evenodd"/></svg>