<svg xmlns="http://www.w3.org/2000/svg" width="18" height="18" viewBox="0 0 18 18">
    <path fill="#F9F5E1" fill-rule="evenodd"
          d="M1.86 9.915H.693A.69.69 0 0 1 0 9.221v-.414a.7.7 0 0 1 .69-.694h1.161A7.22 7.22 0 0 1 8.1 1.808V.69A.7.7 0 0 1 8.792 0h.441a.7.7 0 0 1 .693.694v1.11a7.229 7.229 0 0 1 6.263 6.228h1.119a.69.69 0 0 1 .692.694v.5a.69.69 0 0 1-.692.694h-1.12a7.229 7.229 0 0 1-6.262 6.223v1.164a.7.7 0 0 1-.693.694h-.441a.7.7 0 0 1-.694-.694V16.14a7.229 7.229 0 0 1-6.237-6.225zm4.06 0a3.237 3.237 0 0 0 2.178 2.202v-.633a.7.7 0 0 1 .694-.694h.441a.7.7 0 0 1 .693.694v.643a3.233 3.233 0 0 0 2.213-2.207h-.647a.69.69 0 0 1-.692-.694v-.5a.69.69 0 0 1 .69-.694h.624a3.237 3.237 0 0 0-2.188-2.126v.588a.7.7 0 0 1-.693.694h-.441A.7.7 0 0 1 8.1 6.49v-.576a3.238 3.238 0 0 0-2.18 2.199h.503a.7.7 0 0 1 .692.694v.414a.69.69 0 0 1-.692.694H5.92zm-2.554 0a5.716 5.716 0 0 0 4.732 4.715v-1.123a4.544 4.544 0 0 1-3.795-3.592h-.937zm-.01-1.802h.97A4.674 4.674 0 0 1 8.1 4.543v-1.2a5.71 5.71 0 0 0-4.744 4.77zM14.643 9.92h-1.439a4.547 4.547 0 0 1-3.278 3.482v1.225a5.71 5.71 0 0 0 4.717-4.707zm-.003-1.888a5.714 5.714 0 0 0-4.714-4.686v1.28a4.547 4.547 0 0 1 3.263 3.406h1.45z"/>
</svg>
