<svg xmlns="http://www.w3.org/2000/svg" width="20" height="15" viewBox="0 0 20 15"><path fill="#F9F5E1" fill-rule="evenodd" d="M13.141 11.5L16 10h2l2 1v1l-2.416 2.832-4.443-3.332zM9.162 8.515L9.333 8H0V7h9.667L10 6l2-1 4 1v2l-4 2.644-2.838-2.129zM8.859 10l2 1.5-4.239 3.179L4 12v-1l1.087-1h3.772zm3.083-7.84c-1.298.672-3.558 1.836-3.598 1.798l-.263-.082a.266.266 0 0 1 0-.4L11.754.1a.323.323 0 0 1 .257-.08.322.322 0 0 1 .235.082l3.673 3.383a.266.266 0 0 1 0 .4 1.194 1.194 0 0 1-.312.13c-.06 0-2.408-1.207-3.665-1.856zM15.527 15H8.473L12 12.356 15.527 15z"/></svg>